<?xml version="1.0" encoding="utf-8"?>
<!-- Generator: Adobe Illustrator 23.0.3, SVG Export Plug-In . SVG Version: 6.00 Build 0)  -->
<svg version="1.1" id="Layer_1" xmlns="http://www.w3.org/2000/svg" xmlns:xlink="http://www.w3.org/1999/xlink" x="0px" y="0px"
	 viewBox="0 0 90 90" style="enable-background:new 0 0 90 90;" xml:space="preserve">
<style type="text/css">
	.st0{fill:url(#SVGID_1_);}
	.st1{fill:url(#SVGID_2_);}
</style>
<g>
	
		<linearGradient id="SVGID_1_" gradientUnits="userSpaceOnUse" x1="13.87" y1="43.7087" x2="85.45" y2="43.7087" gradientTransform="matrix(1 0 0 -1 0 88.7087)">
		<stop  offset="0" style="stop-color:#0463EF"/>
		<stop  offset="1" style="stop-color:#07ABA0"/>
	</linearGradient>
	<path class="st0" d="M43.7,3.2C32,3.2,21.5,8,13.9,15.8C20.8,9.7,29.8,6,39.7,6c19.5,0,35.6,14.3,38.6,32.9c-2-1.2-3.6-2.4-4.7-4
		c-7.1-10.4-10.4-10.5-12.3-12.3c-1.7-1.6-4.7-7.5-4-3.9c1,4.9-3.3,9.3-5.1,10.4s-1.6,2.9-2.7,5.9c-1.4,1.2-2.5,1.8-2.9,3.6
		s2.2,3.2,2.9,4.8s0.9,1.2,7,2c6.1,0.7,6.8,4.1,4.7,9.5c-1.8,4.6,4.9,13.4,7.2,16.8C61.2,79.2,51,84,39.7,84c-9.9,0-19-3.7-25.8-9.8
		C21.4,82,32,86.8,43.7,86.8c23.1,0,41.8-18.7,41.8-41.8C85.5,21.9,66.8,3.2,43.7,3.2z"/>
	
		<linearGradient id="SVGID_2_" gradientUnits="userSpaceOnUse" x1="4.55" y1="43.7437" x2="66.27" y2="43.7437" gradientTransform="matrix(1 0 0 -1 0 88.7087)">
		<stop  offset="0" style="stop-color:#9027E2"/>
		<stop  offset="1" style="stop-color:#FB4FAF"/>
	</linearGradient>
	<path class="st1" d="M35.8,77.7c0.4-0.8,1-1.8,1.4-2.6c0.6-1.2,1.1-2.5,1.4-3.7c0.4-1.3,0.6-2.7,0.6-4c0-1-0.1-2-0.2-3
		c-0.7-5.2-3-10.1-2.8-12.6c0,0,3.5,0.2,6.5-1.6c1.5-0.9,2.1-1.9,2.2-3c0.1-1.1-0.4-2.2-1.3-3.2c-0.3-0.4-0.5-0.8-0.6-1.2
		c-0.5-1.8,0.6-3.7-2.4-6c-2.9-2.2-5.4-2-5.6-2c0-0.2,0.2-2.8,0.8-4.8c0.2-0.5,0.4-1,0.6-1.5c0,0,0,0-0.1,0c0,0,0,0,0,0c0,0,0,0,0,0
		h0l0,0c0,0,0,0,0,0h0c0,0,0,0,0,0h0c0,0,0,0,0,0h0c0,0,0,0-0.1,0l0,0c-0.1,0-0.2,0.1-0.3,0.1c0,0,0,0,0,0c0,0-0.1,0-0.1,0
		c0,0,0,0,0,0c0,0-0.1,0-0.1,0c0,0,0,0,0,0c0,0-0.1,0-0.1,0c0,0,0,0,0,0c-0.2,0.1-0.5,0.2-0.8,0.3c0,0,0,0,0,0c-0.1,0-0.1,0-0.2,0.1
		c0,0,0,0,0,0c-0.1,0-0.1,0-0.2,0.1c0,0,0,0,0,0c-0.1,0-0.1,0.1-0.2,0.1l0,0c-0.3,0.1-0.6,0.3-0.8,0.4c0,0,0,0,0,0
		c-0.1,0-0.1,0.1-0.2,0.1c0,0,0,0,0,0C33.1,30,33,30,33,30.1c0,0,0,0,0,0c-0.1,0-0.1,0.1-0.2,0.1c0,0,0,0,0,0
		c-0.1,0-0.2,0.1-0.2,0.1c0,0,0,0,0,0c-0.2,0.1-0.3,0.2-0.5,0.3c0,0,0,0,0,0c-0.1,0-0.1,0.1-0.2,0.1c0,0,0,0-0.1,0
		c-0.1,0-0.1,0.1-0.2,0.1c0,0-0.1,0-0.1,0c-0.1,0-0.1,0.1-0.2,0.1c0,0-0.1,0-0.1,0.1c-0.1,0-0.1,0.1-0.2,0.1c0,0-0.1,0-0.1,0.1
		c-0.1,0-0.1,0.1-0.2,0.1c0,0-0.1,0-0.1,0.1c-0.1,0-0.1,0.1-0.2,0.2c0,0,0,0-0.1,0c-0.1,0.1-0.2,0.1-0.2,0.2c0,0-0.1,0-0.1,0.1
		c-0.1,0-0.1,0.1-0.2,0.1c0,0-0.1,0.1-0.1,0.1c0,0,0,0,0,0c0,0,0,0-0.1,0c0,0,0,0,0,0c-1.6,1.2-3.2,2.8-4.6,4.7
		c-0.6,0.8-1.2,1.8-1.7,2.8c0,0,0,0,0,0c-0.1,0.2-0.2,0.4-0.2,0.6c0,0,0,0,0,0c-0.1,0.1-0.1,0.3-0.2,0.4c0,0,0,0.1-0.1,0.2
		c0,0.1-0.1,0.2-0.1,0.3c0,0.1-0.1,0.1-0.1,0.2c0,0.1-0.1,0.2-0.1,0.2c0,0.1-0.1,0.1-0.1,0.2c0,0.1-0.1,0.2-0.1,0.2
		c0,0,0,0.1-0.1,0.2c0,0.1-0.1,0.2-0.1,0.3c0,0,0,0.1,0,0.1c0,0.1-0.1,0.2-0.1,0.3c0,0,0,0,0,0c-1.2,3.2-1.5,6-2.1,8.4c0,0,0,0,0,0
		c0,0.1,0,0.1-0.1,0.2c0,0,0,0.1,0,0.1c0,0,0,0.1,0,0.2c0,0,0,0.1,0,0.1s0,0.1,0,0.1c0,0,0,0.1,0,0.1c0,0,0,0.1,0,0.1
		c0,0,0,0.1,0,0.2c0,0,0,0.1,0,0.1c-0.1,0.2-0.1,0.4-0.2,0.6c0,0,0,0,0,0c0,0.1,0,0.1-0.1,0.2c0,0,0,0,0,0.1c0,0.1,0,0.1-0.1,0.2
		c0,0,0,0.1,0,0.1c0,0.1,0,0.1-0.1,0.2c0,0,0,0.1,0,0.1c0,0.1,0,0.1-0.1,0.2c0,0,0,0.1,0,0.1c0,0.1,0,0.1-0.1,0.2c0,0,0,0,0,0.1
		c-0.1,0.2-0.2,0.4-0.2,0.6c0,0,0,0.1,0,0.1c0,0.1-0.1,0.1-0.1,0.2c0,0,0,0.1,0,0.1c0,0.1-0.1,0.1-0.1,0.2c0,0,0,0.1,0,0.1
		c0,0.1-0.1,0.1-0.1,0.2c0,0,0,0.1-0.1,0.1c0,0.1-0.1,0.1-0.1,0.2c0,0,0,0.1-0.1,0.1c0,0.1-0.1,0.1-0.1,0.2c0,0,0,0,0,0.1
		c-0.1,0.1-0.1,0.2-0.2,0.3c0,0,0,0.1-0.1,0.1c0,0-0.1,0.1-0.1,0.1c0,0,0,0.1-0.1,0.1S17.7,57,17.7,57c0,0-0.1,0.1-0.1,0.1
		c0,0-0.1,0.1-0.1,0.1c0,0-0.1,0.1-0.1,0.1c0,0-0.1,0.1-0.1,0.1s-0.1,0.1-0.1,0.1s-0.1,0.1-0.1,0.1s-0.1,0.1-0.1,0.1S17,57.9,17,58
		c-0.1,0.1-0.1,0.2-0.2,0.2c0,0-0.1,0.1-0.1,0.1c0,0.1-0.1,0.1-0.1,0.1c0,0-0.1,0.1-0.1,0.1c0,0.1-0.1,0.1-0.1,0.1
		c0,0-0.1,0.1-0.1,0.1c0,0.1-0.1,0.1-0.1,0.1c0,0-0.1,0.1-0.1,0.1c-0.1,0.1-0.1,0.1-0.1,0.1c0,0-0.1,0.1-0.1,0.1
		c-0.1,0.1-0.1,0.1-0.2,0.2c0,0-0.1,0.1-0.1,0.1c-0.1,0.1-0.2,0.2-0.3,0.2c-0.2,0.2-0.3,0.3-0.5,0.5c-0.1,0.1-0.2,0.2-0.4,0.3
		c0,0,0,0,0,0L14,60.3c0.1,0.2,0.2,0.3,0.2,0.5l0,0c-0.1-0.2-0.2-0.3-0.2-0.5l0,0c-2.3-4.6-3.7-9.8-3.7-15.3
		c0-18.6,15.1-33.7,33.7-33.7c8.6,0,16.3,3.2,22.3,8.4C59.7,13.1,50.6,9,40.6,9c-19.9,0-36,16.1-36,36c0,11.1,5,21,12.8,27.6v0.2
		h0.2c6.2,5.2,14.2,8.3,23,8.3c10.1,0,19.2-4.1,25.7-10.8c-5.9,5.2-13.7,8.4-22.3,8.4C41.2,78.7,38.4,78.3,35.8,77.7z"/>
</g>
</svg>
