<?xml version="1.0" encoding="utf-8"?>
<!-- Generator: Adobe Illustrator 23.0.3, SVG Export Plug-In . SVG Version: 6.00 Build 0)  -->
<svg version="1.1" id="Layer_1" xmlns="http://www.w3.org/2000/svg" xmlns:xlink="http://www.w3.org/1999/xlink" x="0px" y="0px"
	 viewBox="0 0 200 150" style="enable-background:new 0 0 200 150;" xml:space="preserve">
<style type="text/css">
	.st0{fill:url(#SVGID_1_);}
	.st1{fill:#C800AA;}
	.st2{font-family:'BalooBhaina-Regular';}
	.st3{font-size:42.3049px;}
	.st4{fill:url(#SVGID_2_);}
</style>
<linearGradient id="SVGID_1_" gradientUnits="userSpaceOnUse" x1="73.7103" y1="55.3847" x2="145.2872" y2="55.3847">
	<stop  offset="0" style="stop-color:#0463EF"/>
	<stop  offset="1" style="stop-color:#07ABA0"/>
</linearGradient>
<path class="st0" d="M103.52,13.62c-11.68,0-22.23,4.8-29.81,12.52c6.88-6.09,15.93-9.8,25.85-9.8c19.49,0,35.64,14.27,38.56,32.94
	c-1.97-1.15-3.61-2.41-4.68-3.99c-7.1-10.43-10.36-10.54-12.32-12.33c-1.73-1.56-4.69-7.51-3.98-3.94c0.99,4.94-3.35,9.3-5.14,10.37
	c-1.79,1.07-1.61,2.86-2.68,5.9c-1.43,1.25-2.5,1.78-2.86,3.57c-0.36,1.79,2.15,3.22,2.86,4.83c0.71,1.61,0.89,1.25,6.97,1.97
	c6.08,0.71,6.79,4.11,4.65,9.46c-1.83,4.56,4.86,13.37,7.24,16.78c-7.13,7.7-17.31,12.52-28.63,12.52c-9.91,0-18.96-3.7-25.85-9.79
	c7.58,7.73,18.13,12.52,29.81,12.52c23.07,0,41.77-18.7,41.77-41.77C145.29,32.32,126.59,13.62,103.52,13.62z"/>
<text transform="matrix(1 0 0 1 5.6127 135.3818)" class="st1 st2 st3">TinderCat</text>
<linearGradient id="SVGID_2_" gradientUnits="userSpaceOnUse" x1="64.3631" y1="55.3847" x2="126.0814" y2="55.3847">
	<stop  offset="0" style="stop-color:#9027E2"/>
	<stop  offset="1" style="stop-color:#FB4FAF"/>
</linearGradient>
<path class="st4" d="M95.68,88.06c0.45-0.82,1.01-1.79,1.41-2.64c0.57-1.21,1.08-2.47,1.44-3.74c0.39-1.33,0.63-2.69,0.63-4.03
	c0-1.01-0.08-2.01-0.23-3.01c-0.73-5.24-3.02-10.13-2.8-12.58c0,0,3.5,0.16,6.47-1.59c1.48-0.87,2.14-1.9,2.22-2.97
	c0.08-1.08-0.44-2.2-1.32-3.24c-0.32-0.38-0.5-0.76-0.6-1.16c-0.47-1.77,0.6-3.72-2.39-6c-2.95-2.25-5.36-1.99-5.58-1.97
	c0.01-0.17,0.21-2.78,0.83-4.83c0.16-0.55,0.36-1.05,0.59-1.46c0,0-0.03,0.01-0.07,0.03c0.01-0.01,0.01-0.03,0.02-0.04
	c0,0,0,0-0.01,0c0,0-0.01,0-0.01,0c0,0,0,0,0,0c-0.01,0-0.01,0.01-0.02,0.01c0,0-0.01,0-0.01,0c-0.01,0-0.02,0.01-0.03,0.01
	c0,0-0.01,0-0.01,0c-0.01,0-0.03,0.01-0.04,0.02c0,0-0.01,0-0.01,0c-0.02,0.01-0.04,0.01-0.06,0.02c0,0,0,0,0,0
	C96,38.93,95.91,38.96,95.8,39c0,0,0,0-0.01,0c-0.03,0.01-0.07,0.03-0.1,0.04c0,0-0.01,0-0.01,0.01c-0.03,0.01-0.07,0.03-0.11,0.04
	c0,0-0.01,0-0.01,0.01c-0.04,0.02-0.08,0.03-0.12,0.05c0,0-0.01,0-0.01,0.01c-0.22,0.09-0.48,0.21-0.78,0.34c0,0-0.01,0-0.01,0.01
	c-0.05,0.03-0.11,0.05-0.16,0.08c-0.01,0-0.01,0.01-0.02,0.01c-0.06,0.03-0.11,0.05-0.17,0.08c-0.01,0-0.01,0.01-0.02,0.01
	c-0.06,0.03-0.13,0.06-0.19,0.09c0,0,0,0,0,0c-0.26,0.13-0.55,0.27-0.84,0.43c-0.01,0-0.02,0.01-0.03,0.01
	c-0.06,0.03-0.13,0.07-0.19,0.1c-0.01,0.01-0.03,0.01-0.04,0.02c-0.06,0.03-0.12,0.07-0.19,0.1c-0.01,0.01-0.03,0.02-0.04,0.02
	c-0.06,0.04-0.13,0.07-0.2,0.11c-0.01,0.01-0.02,0.01-0.03,0.02c-0.08,0.04-0.15,0.09-0.23,0.13c0,0,0,0-0.01,0
	c-0.16,0.09-0.32,0.19-0.49,0.3c-0.01,0.01-0.02,0.01-0.03,0.02c-0.07,0.04-0.14,0.09-0.21,0.13c-0.02,0.01-0.04,0.03-0.06,0.04
	c-0.06,0.04-0.12,0.08-0.18,0.11c-0.03,0.02-0.05,0.03-0.08,0.05c-0.06,0.04-0.11,0.07-0.17,0.11c-0.03,0.02-0.06,0.04-0.09,0.06
	c-0.06,0.04-0.11,0.07-0.17,0.11c-0.03,0.02-0.06,0.04-0.09,0.06c-0.06,0.04-0.11,0.08-0.17,0.12c-0.03,0.02-0.05,0.04-0.08,0.06
	c-0.07,0.05-0.14,0.1-0.21,0.15c-0.02,0.01-0.03,0.02-0.05,0.03c-0.08,0.06-0.17,0.12-0.25,0.18c-0.03,0.03-0.07,0.05-0.1,0.08
	c-0.05,0.04-0.1,0.07-0.15,0.11c-0.04,0.03-0.08,0.06-0.12,0.09c-0.01,0.01-0.02,0.02-0.03,0.02c-0.02,0.01-0.04,0.03-0.06,0.04
	c0,0-0.01,0-0.01,0.01c-1.59,1.21-3.23,2.75-4.63,4.65c-0.63,0.85-1.21,1.77-1.71,2.77c-0.01,0.02-0.01,0.03-0.02,0.05
	c-0.09,0.21-0.18,0.41-0.25,0.61c-0.01,0.02-0.02,0.03-0.02,0.05c-0.06,0.14-0.13,0.28-0.19,0.42c-0.02,0.05-0.04,0.1-0.07,0.16
	c-0.04,0.09-0.07,0.17-0.11,0.26c-0.03,0.06-0.05,0.12-0.08,0.18c-0.03,0.08-0.06,0.15-0.09,0.22c-0.02,0.06-0.05,0.12-0.07,0.18
	c-0.03,0.08-0.06,0.15-0.09,0.23c-0.02,0.05-0.04,0.1-0.06,0.15c-0.03,0.09-0.07,0.17-0.1,0.26c-0.01,0.04-0.03,0.07-0.04,0.11
	c-0.04,0.11-0.08,0.21-0.12,0.32c0,0.01-0.01,0.02-0.01,0.03c-1.15,3.23-1.54,5.95-2.09,8.4c0,0.02-0.01,0.03-0.01,0.05
	c-0.02,0.07-0.03,0.14-0.05,0.21c-0.01,0.04-0.02,0.07-0.03,0.11c-0.01,0.05-0.02,0.1-0.04,0.15c-0.01,0.04-0.02,0.09-0.03,0.13
	c-0.01,0.04-0.02,0.09-0.03,0.13c-0.01,0.05-0.02,0.09-0.04,0.14c-0.01,0.04-0.02,0.07-0.03,0.11c-0.01,0.05-0.03,0.1-0.04,0.15
	c-0.01,0.03-0.02,0.06-0.02,0.09c-0.05,0.2-0.11,0.4-0.17,0.6c-0.01,0.02-0.01,0.03-0.01,0.05c-0.02,0.06-0.03,0.11-0.05,0.17
	c-0.01,0.03-0.02,0.05-0.02,0.08c-0.02,0.06-0.04,0.11-0.05,0.17c-0.01,0.03-0.02,0.06-0.03,0.08c-0.02,0.05-0.04,0.11-0.05,0.16
	c-0.01,0.03-0.02,0.06-0.03,0.08c-0.02,0.06-0.04,0.11-0.06,0.17c-0.01,0.03-0.02,0.05-0.03,0.08c-0.02,0.06-0.04,0.11-0.06,0.17
	c-0.01,0.02-0.01,0.03-0.02,0.05c-0.08,0.2-0.16,0.4-0.24,0.59c-0.01,0.02-0.02,0.05-0.03,0.07c-0.02,0.05-0.05,0.11-0.07,0.16
	c-0.01,0.03-0.03,0.06-0.04,0.09c-0.02,0.05-0.05,0.1-0.07,0.15c-0.01,0.03-0.03,0.06-0.04,0.09c-0.02,0.05-0.05,0.1-0.07,0.15
	c-0.02,0.03-0.03,0.06-0.05,0.09c-0.03,0.05-0.05,0.1-0.08,0.15c-0.02,0.03-0.03,0.06-0.05,0.09c-0.03,0.05-0.05,0.1-0.08,0.15
	c-0.01,0.02-0.02,0.04-0.03,0.05c-0.06,0.11-0.12,0.21-0.18,0.32c-0.02,0.03-0.04,0.06-0.05,0.09c-0.03,0.04-0.06,0.09-0.08,0.13
	c-0.02,0.04-0.04,0.07-0.07,0.11c-0.03,0.04-0.06,0.09-0.09,0.13c-0.02,0.04-0.05,0.07-0.07,0.11c-0.03,0.04-0.06,0.08-0.09,0.13
	c-0.03,0.04-0.05,0.08-0.08,0.11c-0.03,0.04-0.06,0.08-0.09,0.12c-0.03,0.04-0.06,0.08-0.09,0.12c-0.03,0.04-0.06,0.08-0.09,0.12
	c-0.03,0.04-0.07,0.09-0.1,0.13c-0.03,0.04-0.05,0.07-0.08,0.11c-0.06,0.08-0.12,0.15-0.19,0.23c-0.03,0.03-0.06,0.07-0.08,0.1
	c-0.04,0.05-0.08,0.1-0.12,0.14c-0.03,0.04-0.06,0.07-0.09,0.11c-0.04,0.05-0.08,0.09-0.12,0.14c-0.03,0.04-0.07,0.07-0.1,0.11
	c-0.04,0.05-0.08,0.09-0.13,0.14c-0.03,0.03-0.07,0.07-0.1,0.1c-0.05,0.05-0.09,0.09-0.14,0.14c-0.03,0.03-0.07,0.07-0.1,0.1
	c-0.05,0.05-0.11,0.1-0.16,0.16c-0.03,0.03-0.06,0.06-0.09,0.08c-0.08,0.08-0.17,0.16-0.26,0.24c-0.17,0.15-0.33,0.3-0.5,0.46
	c-0.13,0.12-0.25,0.23-0.38,0.34c-0.01,0.01-0.03,0.02-0.04,0.03l-0.4-0.32c0.08,0.16,0.16,0.31,0.24,0.46c0,0,0,0,0,0
	c-0.08-0.15-0.16-0.31-0.24-0.46l0,0c-2.35-4.59-3.68-9.78-3.68-15.29c0-18.59,15.07-33.66,33.67-33.66
	c8.55,0,16.35,3.19,22.28,8.44c-6.53-6.66-15.63-10.79-25.7-10.79c-19.89,0-36.01,16.12-36.01,36.01c0,11.07,4.99,20.97,12.85,27.57
	v0.17h0.21c6.23,5.16,14.23,8.27,22.96,8.27c10.07,0,19.17-4.14,25.7-10.79c-5.94,5.25-13.74,8.44-22.28,8.44
	C100.99,89.04,98.28,88.7,95.68,88.06z"/>
</svg>
